<?xml version="1.0" encoding="UTF-8"?>
<svg width="128pt" xmlns:inkscape="http://www.inkscape.org/namespaces/inkscape" xmlns="http://www.w3.org/2000/svg" xmlns:xlink="http://www.w3.org/1999/xlink" height="128pt" viewBox="0 0 128 128" version="1.1">
 <defs/>
 <g id="App Icon" inkscape:groupmode="layer" inkscape:label="App Icon">
  <path d="M0 7.92381 C0 3.54761 3.54761 0 7.92381 0 L95.0857 0 C99.4619 0 103.01 3.54761 103.01 7.92381 L103.01 95.0857 C103.01 99.4619 99.4619 103.01 95.0857 103.01 L7.92381 103.01 C3.54761 103.01 0 99.4619 0 95.0857 L0 7.92381 Z" transform="translate(12.4953, 12.4952)" style="fill:none;stroke-width:2.83465; stroke-linecap:butt; stroke-linejoin:miter; stroke-dasharray:none; stroke:#171615;"/>
  <path d="M63.7762 31.8881 C63.7762 49.5001 49.5001 63.7762 31.8881 63.7762 C14.2768 63.7762 0 49.5001 0 31.8881 C0 14.2768 14.2768 0 31.8881 0 C49.5001 0 63.7762 14.2768 63.7762 31.8881 Z" transform="translate(32.1125, 40.6165)" style="fill:none;stroke-width:2.83465; stroke-linecap:butt; stroke-linejoin:miter; stroke-dasharray:none; stroke:#171615;"/>
  <path d="M10.5961 7.88384 C19.4471 -0.172105 30.736 -0.225105 33.916 0.0928931 C33.916 3.06725 33.9528 6.30585 33.9528 12.2545 C33.9528 18.2033 22.5309 3.33148 22.5309 18.2033 C22.5309 33.0751 33.9528 18.2033 33.9528 24.152 C33.9528 30.1007 33.9528 33.0751 33.9528 36.0494 C31.0973 36.0494 28.2418 36.0494 22.5309 36.0494 C16.8199 36.0494 31.0973 24.152 16.8199 24.152 C2.54257 24.152 16.8199 36.0494 11.1089 36.0494 C5.39806 36.0494 2.92858 36.0921 0.0731058 36.0921 C-0.301589 27.2868 0.420254 17.2118 10.5961 7.88384 Z" transform="translate(32.3968, 40.6296)" style="fill:none;stroke-width:2.83465; stroke-linecap:butt; stroke-linejoin:miter; stroke-dasharray:none; stroke:#171615;"/>
  <path d="M10.75 10.7841 C18.8125 10.7841 16.125 10.7841 21.5 10.7841 C26.875 10.7841 13.4375 0 26.875 0 C31.5803 0 31.6222 1.66796 31.6986 3.38647 C31.8404 6.57574 28.7571 10.7841 32.25 10.7841 C32.3078 10.8433 30.587 10.803 33.2745 10.803 C33.7214 17.8444 31.1453 36.907 10.772 43.0368 C10.772 40.3408 10.75 37.7442 10.75 32.3522 C10.75 26.9601 0 40.4402 0 26.9601 C0 13.4801 10.75 26.9601 10.75 21.5681 C10.75 16.1761 10.75 13.4801 10.75 10.7841 Z" transform="translate(62.5252, 60)" style="fill:none;stroke-width:2.83465; stroke-linecap:butt; stroke-linejoin:miter; stroke-dasharray:none; stroke:#171615;"/>
  <path d="M 0 0 L 102.725 0" transform="translate(12.4811, 33.572)" style="stroke-width:2.83465; stroke-linecap:butt; stroke-linejoin:miter; stroke-dasharray:none; stroke:#171615;"/>
 </g>
</svg>
