<?xml version="1.0" encoding="utf-8"?>
<svg viewBox="0 0 500 500" xmlns="http://www.w3.org/2000/svg" xmlns:bx="https://boxy-svg.com">
  <defs>
    <linearGradient gradientUnits="userSpaceOnUse" x1="250" y1="155" x2="250" y2="405" id="gradient-0" gradientTransform="matrix(0.720453, -0.693504, 0.685612, 0.712257, -121.640781, 250.835989)">
      <stop offset="0" style="stop-color: rgb(53, 132, 228);"/>
      <stop offset="1" style="stop-color: rgb(26, 95, 180);"/>
    </linearGradient>
    <linearGradient gradientUnits="userSpaceOnUse" x1="250" y1="155" x2="250" y2="405" id="gradient-1" gradientTransform="matrix(0.004952, -0.999989, 0.358792, 0.001777, 147.856216, 649.508493)">
      <stop offset="0" style="stop-color: rgb(153, 193, 241);"/>
      <stop offset="1" style="stop-color: rgb(26, 95, 180);"/>
    </linearGradient>
  </defs>
  <path style="fill: rgb(154, 153, 150);" d="M 40 50 H 460 A 40 40 0 0 1 500 90 V 450 H 0 V 90 A 40 40 0 0 1 40 50 Z" bx:shape="rect 0 50 500 400 40 40 0 0 1@07008b18"/>
  <rect y="110" width="500" height="340" style="fill: rgb(222, 221, 218);"/>
  <ellipse style="fill: url(#gradient-1);" cx="250" cy="285" rx="125" ry="125"/>
  <ellipse style="fill: url(#gradient-0);" cx="250" cy="280" rx="125" ry="125"/>
  <g>
    <g>
      <path style="fill: rgb(51, 209, 122);" d="M 166.999 230.921 L 140.487 247.333 L 141.119 277 L 166.999 285.206 L 173.311 306.667 L 168.261 335.703 L 192.247 349.59 L 217.496 329.391 L 216.233 304.773 L 218.127 281.418 L 225.702 273.212 L 210.552 268.794 L 214.971 242.914 L 201.715 226.502 L 166.999 230.921 Z"/>
      <path style="fill: rgb(51, 209, 122);" d="M 214.971 242.283 L 222.546 257.432 L 229.489 273.844 L 254.106 266.269 L 251.581 254.907 L 242.744 254.276 L 240.22 244.808 L 254.738 240.389 L 264.206 242.283 L 285.667 236.602 L 297.66 247.333 L 289.454 246.701 L 302.079 278.893 L 307.76 263.744 L 312.809 254.907 L 321.646 249.857 L 325.434 262.482 L 350.051 272.581 L 362.675 260.588 L 367.725 246.701 L 362.044 227.765 L 351.945 213.878 L 339.952 194.942 L 307.128 172.218 L 276.83 160.225 L 246.532 173.48 L 220.652 172.849 L 199.822 176.636 L 180.254 178.53 L 171.417 198.729 L 187.829 192.417 L 202.347 200.623 L 194.141 205.041 L 182.148 201.254 L 170.786 207.566 L 156.899 209.46 L 146.8 222.084 L 156.899 227.765 L 168.261 220.19 L 177.729 215.772 L 184.673 223.978 L 190.985 216.403 L 203.609 216.403 L 201.084 220.822 L 201.715 227.134 L 214.971 242.283 Z"/>
      <path style="fill: rgb(51, 209, 122);" d="M 293.242 249.857 L 269.255 232.815 L 288.192 226.502 L 306.497 246.701 L 293.242 249.857 Z"/>
      <path style="fill: rgb(51, 209, 122);" d="M 305.235 281.418 L 304.604 291.518 L 313.441 288.993 L 305.235 281.418 Z"/>
      <path style="fill: rgb(51, 209, 122);" d="M 334.902 261.851 L 342.477 287.099 L 355.732 277 L 353.838 264.375 L 334.902 261.851 Z"/>
      <path style="fill: rgb(51, 209, 122);" d="M 350.051 300.355 L 341.845 288.362 L 350.682 311.717 L 350.051 300.355 Z"/>
      <path style="fill: rgb(51, 209, 122);" d="M 357.626 301.617 L 373.406 288.993 L 372.144 310.454 L 357.626 301.617 Z"/>
      <path style="fill: rgb(51, 209, 122);" d="M 343.108 365.37 L 332.377 362.214 L 329.221 338.859 L 346.264 327.497 L 355.101 333.178 L 365.831 328.128 L 362.044 339.49 L 353.838 352.114 L 348.157 360.951 L 343.108 365.37 Z"/>
    </g>
    <path style="fill: rgb(51, 209, 122);" d="M 227.595 340.121 L 222.546 326.866 L 233.276 311.085 L 239.588 315.504 L 237.063 341.384 L 227.595 340.121 Z"/>
  </g>
  <ellipse style="fill: rgb(222, 221, 218);" cx="447.883" cy="81.202" rx="19.887" ry="19.887"/>
</svg>