<?xml version="1.0" encoding="UTF-8"?>
<svg xmlns:xlink="http://www.w3.org/1999/xlink" xmlns:inkscape="http://www.inkscape.org/namespaces/inkscape" viewBox="0 0 128 128" xmlns="http://www.w3.org/2000/svg" version="1.1" width="128pt" height="128pt">
 <defs>
  <linearGradient y2="0" x2="103.01" gradientTransform="matrix(1 0 0 1 0 0)" gradientUnits="userSpaceOnUse" y1="0" id="Grad0" x1="0">
   <stop offset="0%" stop-opacity="1" stop-color="#c0bfbc"/>
   <stop offset="4.31034%" stop-opacity="1" stop-color="#deddda"/>
   <stop offset="8%" stop-opacity="1" stop-color="#c0bfbc"/>
   <stop offset="92%" stop-opacity="1" stop-color="#c0bfbc"/>
   <stop offset="96.2644%" stop-opacity="1" stop-color="#deddda"/>
   <stop offset="100%" stop-opacity="1" stop-color="#c0bfbc"/>
  </linearGradient>
  <linearGradient y2="-6.64615" x2="34.1706" gradientTransform="matrix(1 0 -0.103448 1 0 0)" gradientUnits="userSpaceOnUse" y1="0" id="Grad1" x1="0">
   <stop offset="0%" stop-opacity="1" stop-color="#99c0f1"/>
   <stop offset="100%" stop-opacity="1" stop-color="#1c70d8"/>
  </linearGradient>
  <linearGradient y2="0" x2="63.7762" gradientTransform="matrix(1 0 0 1 0 0)" gradientUnits="userSpaceOnUse" y1="0" id="Grad2" x1="0">
   <stop offset="0%" stop-opacity="1" stop-color="#99c0f1"/>
   <stop offset="100%" stop-opacity="1" stop-color="#1c70d8"/>
  </linearGradient>
  <linearGradient y2="18.3829" x2="34.0081" gradientTransform="matrix(1 0 -0.748834 1 13.3638 0)" gradientUnits="userSpaceOnUse" y1="17.8462" id="Grad3" x1="0">
   <stop offset="0%" stop-opacity="1" stop-color="#8ff0a3"/>
   <stop offset="100%" stop-opacity="1" stop-color="#2ec27e"/>
  </linearGradient>
  <linearGradient y2="21.5895" x2="27.2238" gradientTransform="matrix(1 0 -0.585061 1 15.446 0)" gradientUnits="userSpaceOnUse" y1="26.4007" id="Grad4" x1="-9.06294">
   <stop offset="0%" stop-opacity="1" stop-color="#33d17a"/>
   <stop offset="100%" stop-opacity="1" stop-color="#26a268"/>
  </linearGradient>
  <linearGradient y2="21.5895" x2="27.2238" gradientTransform="matrix(1 0 -0.585061 1 15.446 0)" gradientUnits="userSpaceOnUse" y1="26.4007" id="Grad5" x1="-9.06294">
   <stop offset="0%" stop-opacity="1" stop-color="#8ff0a3"/>
   <stop offset="100%" stop-opacity="1" stop-color="#2ec27e"/>
  </linearGradient>
 </defs>
 <g inkscape:label="App Icon" id="App Icon" inkscape:groupmode="layer">
  <path d="M0 7.92381 C0 3.54761 3.54761 0 7.92381 0 L95.0857 0 C99.4619 0 103.01 3.54761 103.01 7.92381 L103.01 95.0857 C103.01 99.4619 99.4619 103.01 95.0857 103.01 L7.92381 103.01 C3.54761 103.01 0 99.4619 0 95.0857 L0 7.92381 Z" transform="translate(12.4953, 12.4952)" style="fill:url(#Grad0); fill-rule:evenodd;stroke:none;"/>
  <path d="M0 7.92381 C0 3.54761 3.54761 0 7.92381 0 L95.0857 0 C99.4619 0 103.01 3.54761 103.01 7.92381 L103.01 92.8576 C103.01 97.2338 99.4619 100.781 95.0857 100.781 L7.92381 100.781 C3.54761 100.781 0 97.2338 0 92.8576 L0 7.92381 Z" transform="translate(12.4953, 12.4952)" style="fill:#f6f5f4; fill-rule:evenodd;stroke:none;"/>
  <path d="M0 7.92381 C0 3.54761 3.54761 0 7.92381 0 L95.0857 0 C99.4619 0 103.01 3.54761 103.01 7.92381 L103.01 13.3509 C103.01 17.7271 99.4619 21.2747 95.0857 21.2747 L7.92381 21.2747 C3.54761 21.2747 0 17.7271 0 13.3509 L0 7.92381 Z" transform="translate(12.4953, 12.4952)" style="fill:#c0bfbc; fill-rule:evenodd;stroke:none;"/>
  <path d="M0 0 L103.01 0 L103.01 11.2448 L0 11.2448 L0 0 Z" transform="translate(12.4953, 22.5252)" style="fill:#c0bfbc; fill-rule:evenodd;stroke:none;"/>
  <path d="M63.7762 31.8881 C63.7762 49.5001 49.5001 63.7762 31.8881 63.7762 C14.2768 63.7762 0 49.5001 0 31.8881 C0 14.2768 14.2768 0 31.8881 0 C49.5001 0 63.7762 14.2768 63.7762 31.8881 Z" transform="translate(32.1125, 43.4511)" style="fill:url(#Grad1); fill-rule:evenodd;stroke:none;"/>
  <path d="M63.7762 31.8881 C63.7762 49.5001 49.5001 63.7762 31.8881 63.7762 C14.2768 63.7762 0 49.5001 0 31.8881 C0 14.2768 14.2768 0 31.8881 0 C49.5001 0 63.7762 14.2768 63.7762 31.8881 Z" transform="translate(32.1125, 40.6165)" style="fill:url(#Grad2); fill-rule:evenodd;stroke:none;"/>
  <path d="M10.9277 7.88384 C19.7787 -0.172105 31.0676 -0.225105 34.2476 0.092893 C34.2476 3.06725 34.2844 6.30585 34.2844 12.2545 C34.2844 18.2033 22.8625 3.33148 22.8625 18.2033 C22.8625 33.0751 34.2844 18.2033 34.2844 24.152 C34.2844 30.1007 34.2844 33.0751 34.2844 36.0494 C31.4289 36.0494 28.5734 36.0494 22.8625 36.0494 C17.1515 36.0494 31.4289 24.152 17.1515 24.152 C2.87413 24.152 17.1515 36.0494 11.4405 36.0494 C5.72962 36.0494 2.91706 36.0907 0.0615829 36.0907 C-0.313112 27.2854 0.751811 17.2118 10.9277 7.88384 Z" transform="translate(32.0653, 40.6296)" style="fill:url(#Grad3); fill-rule:evenodd;stroke:none;"/>
  <path d="M0 0 C8.0625 0 5.375 0 10.75 0 C16.125 0 18.0071 0 21.5 0 C21.5578 0.0592 19.837 0.0189 22.5245 0.0189 C22.9714 7.0603 20.3953 26.1229 0.022 32.2527 C0.022 29.5567 0 26.9601 0 21.5681 C0 16.176 0 16.176 0 10.784 C0 5.392 0 2.696 0 0 Z" transform="translate(73.2752, 73.6187)" style="fill:url(#Grad4); fill-rule:evenodd;stroke:none;"/>
  <path d="M10.75 10.7841 C18.8125 10.7841 16.125 10.7841 21.5 10.7841 C26.875 10.7841 13.4375 0 26.875 0 C31.5803 0 31.6222 1.66796 31.6986 3.38647 C31.8404 6.57574 28.7571 10.7841 32.25 10.7841 C32.3078 10.8433 30.587 10.803 33.2745 10.803 C33.7214 17.8444 31.1453 36.907 10.772 43.0368 C10.772 40.3408 10.75 37.7442 10.75 32.3522 C10.75 26.9601 0 40.4402 0 26.9601 C0 13.4801 10.75 26.9601 10.75 21.5681 C10.75 16.1761 10.75 13.4801 10.75 10.7841 Z" transform="translate(62.5252, 60)" style="fill:url(#Grad5); fill-rule:evenodd;stroke:none;"/>
 </g>
</svg>
